<svg xmlns="http://www.w3.org/2000/svg" viewBox="0 0 1314.69 381.2"><defs><style>.cls-1{fill:#005476;}.cls-1,.cls-2{fill-rule:evenodd;}.cls-2,.cls-3{fill:#34a9e4;}.cls-4{fill:#45abd6;}.cls-5{fill:#255171;}</style></defs><g id="Layer_2" data-name="Layer 2"><g id="Layer_1-2" data-name="Layer 1"><g id="Layer_3" data-name="Layer 3"><path class="cls-1" d="M104.48,52.24V162q19.18,30.61,85.7,6.94-36,52.51-102.43,33.05a47.17,47.17,0,0,0,16.32,10.62l.41,115.5v2.44A49.36,49.36,0,0,1,89,364.87a59.14,59.14,0,0,1-11.43,9,50.12,50.12,0,0,1-25.3,6.53q-21.63,0-37.14-15.51A48.69,48.69,0,0,1,.41,332.62a14.71,14.71,0,0,1-.21-2,16.35,16.35,0,0,1-.2-2.44V52.24A51.59,51.59,0,0,1,52.24,0,50,50,0,0,1,89,15.11Q104.48,30.61,104.48,52.24Z"></path><path class="cls-2" d="M293,15.93q15.51,15.5,15.51,37.13V330.58A49.29,49.29,0,0,1,293,365.69a48,48,0,0,1-23.26,13.87,55.21,55.21,0,0,1-13.47,1.64,50.41,50.41,0,0,1-13.06-1.64,49,49,0,0,1-22-12.25,14,14,0,0,1-2-1.62,50,50,0,0,1-15.1-35.11V223.66q11.94-10,15.1-17.14-61.21,42.85-109,16.32,69.39-6.53,94.28-61.22l-.41-108.56A51.59,51.59,0,0,1,256.3.82Q277.93.82,293,15.93Z"></path></g><path class="cls-3" d="M374.31,85h8.55v22.72h25.56V85H417v53.9h-8.55V115.51H382.86v23.41h-8.55Z"></path><path class="cls-3" d="M453,84c16.1,0,27.72,12.24,27.72,28,0,15.86-11.62,27.95-27.79,27.95s-27.72-12-27.72-27.95C425.21,96.19,436.91,84,453,84Zm0,47.89c10.78,0,18.87-8.39,18.87-19.94C471.87,100.58,463.78,92,453,92s-18.86,8.55-18.86,19.94C434.14,123.52,442.15,131.91,453,131.91Z"></path><path class="cls-3" d="M492.81,124.37c1.47,3.85,4.62,7.62,10.55,7.62,4.85,0,8.09-2.69,8.09-7.24,0-11.39-24.26-8.85-24.26-26.18,0-8.39,6.24-14.55,16.17-14.55A16.33,16.33,0,0,1,519.3,95l-7.08,3.16c-1.24-2.62-3.7-6.31-9-6.31-4.78,0-7.47,2.92-7.47,6.62,0,10.62,24.41,8.7,24.41,25.64,0,9-6.55,15.78-17.17,15.78-11,0-15.79-7.39-17.4-12.16Z"></path><path class="cls-3" d="M528.62,85h15.63c10.16,0,17.25,6.47,17.25,16.17,0,9.55-7.4,16.4-17.17,16.4h-7.17v21.33h-8.54Zm14.63,25.1c5.62,0,9.47-3.54,9.47-8.93s-3.85-8.7-9.4-8.7h-6.16v17.63Z"></path><path class="cls-3" d="M569,85h8.55v53.9H569Z"></path><path class="cls-3" d="M598.38,92.72H584.83V85h35.65v7.7H606.93v46.2h-8.55Z"></path><path class="cls-3" d="M637.65,123.21,632,138.92H623.4L643,85h8.85l19.64,53.9H662.9l-5.54-15.71Zm9.85-28.95L640,116.05H655Z"></path><path class="cls-3" d="M678,85h8.54v46.2h18.87v7.7H678Z"></path><path class="cls-3" d="M376.16,173.89H405.5c28.95,0,48.13,16.86,48.13,45,0,27.8-18.92,45-48.13,45H376.16ZM405,242.35c13.13,0,22-7.85,22-23.42,0-15.83-8.88-23.42-22-23.42h-3.21v46.84Z"></path><path class="cls-3" d="M464.18,173.89h50.45v22.39H489.79v11.07h21v22.26h-21v12h25.87V264H464.18Z"></path><path class="cls-3" d="M579.74,264l-32.69-90.08h28.06l18.66,60.48,18.53-60.48h28.06L607.67,264Z"></path><path class="cls-3" d="M648.33,173.89h25.61V264H648.33Z"></path><path class="cls-3" d="M688.87,173.89h25.61v67.69h25.87V264H688.87Z"></path><path class="cls-3" d="M749.22,173.89h25.61v67.69H800.7V264H749.22Z"></path><path class="cls-3" d="M833.77,246.73,828.37,264H802.63l31.14-90.08h27L891.94,264H866.2l-5.4-17.24Zm13.52-46.33-7.47,25.87h14.93Z"></path><path class="cls-3" d="M979.07,227.42l20.33-53.53h33.2V264h-24.45V209.15l-17.37,47.74h-23.3l-17.24-47.74V264H925.66V173.89H959Z"></path><path class="cls-3" d="M1047.53,173.89H1098v22.39h-24.84v11.07h21v22.26h-21v12H1099V264h-51.48Z"></path><path class="cls-3" d="M1111.62,173.89h25.61v67.69h25.86V264h-51.47Z"></path><path class="cls-3" d="M1172,173.89h25.61v67.69h25.87V264H1172Z"></path><path class="cls-3" d="M1256.52,246.73l-5.4,17.24h-25.74l31.14-90.08h27L1314.69,264H1289l-5.4-17.24ZM1270,200.4l-7.46,25.87h14.93Z"></path><path class="cls-4" d="M336,82a7.13,7.13,0,1,1-7.13-7.23A7.17,7.17,0,0,1,336,82"></path><path class="cls-5" d="M336,55.5a7.13,7.13,0,1,1-7.13-7.23A7.17,7.17,0,0,1,336,55.5"></path></g></g></svg>